<mxfile host="app.diagrams.net" modified="2023-11-09T10:47:07.679Z" agent="Mozilla/5.0 (Windows NT 10.0; Win64; x64) AppleWebKit/537.36 (KHTML, like Gecko) Chrome/116.0.0.0 Safari/537.36 OPR/102.0.0.0 (Edition std-1)" etag="z3hbW9glHXAJqoCi-UbM" version="22.1.0" type="github">
  <diagram id="C5RBs43oDa-KdzZeNtuy" name="Page-1">
    <mxGraphModel dx="1161" dy="638" grid="1" gridSize="10" guides="1" tooltips="1" connect="1" arrows="1" fold="1" page="1" pageScale="1" pageWidth="827" pageHeight="1169" math="0" shadow="0">
      <root>
        <mxCell id="WIyWlLk6GJQsqaUBKTNV-0" />
        <mxCell id="WIyWlLk6GJQsqaUBKTNV-1" parent="WIyWlLk6GJQsqaUBKTNV-0" />
        <mxCell id="9N3kZkyaygAFgJH1Zinq-3" value="" style="edgeStyle=orthogonalEdgeStyle;rounded=0;orthogonalLoop=1;jettySize=auto;html=1;" edge="1" parent="WIyWlLk6GJQsqaUBKTNV-1" source="WIyWlLk6GJQsqaUBKTNV-3" target="9N3kZkyaygAFgJH1Zinq-1">
          <mxGeometry relative="1" as="geometry" />
        </mxCell>
        <mxCell id="WIyWlLk6GJQsqaUBKTNV-3" value="Choose a random word from the list" style="rounded=1;whiteSpace=wrap;html=1;fontSize=12;glass=0;strokeWidth=1;shadow=0;" parent="WIyWlLk6GJQsqaUBKTNV-1" vertex="1">
          <mxGeometry x="370" width="120" height="40" as="geometry" />
        </mxCell>
        <mxCell id="WIyWlLk6GJQsqaUBKTNV-9" value="Yes" style="edgeStyle=orthogonalEdgeStyle;rounded=0;html=1;jettySize=auto;orthogonalLoop=1;fontSize=11;endArrow=block;endFill=0;endSize=8;strokeWidth=1;shadow=0;labelBackgroundColor=none;" parent="WIyWlLk6GJQsqaUBKTNV-1" source="WIyWlLk6GJQsqaUBKTNV-10" target="WIyWlLk6GJQsqaUBKTNV-12" edge="1">
          <mxGeometry y="10" relative="1" as="geometry">
            <mxPoint as="offset" />
          </mxGeometry>
        </mxCell>
        <mxCell id="9N3kZkyaygAFgJH1Zinq-9" value="" style="edgeStyle=orthogonalEdgeStyle;rounded=0;orthogonalLoop=1;jettySize=auto;html=1;entryX=0.5;entryY=0;entryDx=0;entryDy=0;" edge="1" parent="WIyWlLk6GJQsqaUBKTNV-1">
          <mxGeometry relative="1" as="geometry">
            <mxPoint x="430.0044827586207" y="190.02758620689644" as="sourcePoint" />
            <mxPoint x="429.97" y="190" as="targetPoint" />
            <Array as="points">
              <mxPoint x="429.97" y="170" />
              <mxPoint x="339.97" y="170" />
              <mxPoint x="339.97" y="290" />
              <mxPoint x="429.97" y="290" />
            </Array>
          </mxGeometry>
        </mxCell>
        <mxCell id="WIyWlLk6GJQsqaUBKTNV-10" value="Input a valid letter" style="rhombus;whiteSpace=wrap;html=1;shadow=0;fontFamily=Helvetica;fontSize=12;align=center;strokeWidth=1;spacing=6;spacingTop=-4;" parent="WIyWlLk6GJQsqaUBKTNV-1" vertex="1">
          <mxGeometry x="380" y="190" width="100" height="80" as="geometry" />
        </mxCell>
        <mxCell id="9N3kZkyaygAFgJH1Zinq-13" value="" style="edgeStyle=orthogonalEdgeStyle;rounded=0;orthogonalLoop=1;jettySize=auto;html=1;" edge="1" parent="WIyWlLk6GJQsqaUBKTNV-1" source="WIyWlLk6GJQsqaUBKTNV-12" target="9N3kZkyaygAFgJH1Zinq-12">
          <mxGeometry relative="1" as="geometry" />
        </mxCell>
        <mxCell id="WIyWlLk6GJQsqaUBKTNV-12" value="Check if letter is in word" style="rounded=1;whiteSpace=wrap;html=1;fontSize=12;glass=0;strokeWidth=1;shadow=0;" parent="WIyWlLk6GJQsqaUBKTNV-1" vertex="1">
          <mxGeometry x="370" y="336" width="120" height="40" as="geometry" />
        </mxCell>
        <mxCell id="9N3kZkyaygAFgJH1Zinq-7" value="" style="edgeStyle=orthogonalEdgeStyle;rounded=0;orthogonalLoop=1;jettySize=auto;html=1;" edge="1" parent="WIyWlLk6GJQsqaUBKTNV-1" source="9N3kZkyaygAFgJH1Zinq-1" target="WIyWlLk6GJQsqaUBKTNV-10">
          <mxGeometry relative="1" as="geometry" />
        </mxCell>
        <mxCell id="9N3kZkyaygAFgJH1Zinq-1" value="Show word&#39;s letters as a &#39;-&#39;" style="whiteSpace=wrap;html=1;rounded=1;glass=0;strokeWidth=1;shadow=0;" vertex="1" parent="WIyWlLk6GJQsqaUBKTNV-1">
          <mxGeometry x="370" y="83" width="120" height="40" as="geometry" />
        </mxCell>
        <mxCell id="9N3kZkyaygAFgJH1Zinq-5" value="Yes" style="text;html=1;align=center;verticalAlign=middle;resizable=0;points=[];autosize=1;strokeColor=none;fillColor=none;" vertex="1" parent="WIyWlLk6GJQsqaUBKTNV-1">
          <mxGeometry x="440" y="150" width="40" height="30" as="geometry" />
        </mxCell>
        <mxCell id="9N3kZkyaygAFgJH1Zinq-10" value="Yes" style="text;html=1;align=center;verticalAlign=middle;resizable=0;points=[];autosize=1;strokeColor=none;fillColor=none;" vertex="1" parent="WIyWlLk6GJQsqaUBKTNV-1">
          <mxGeometry x="440" y="50" width="40" height="30" as="geometry" />
        </mxCell>
        <mxCell id="9N3kZkyaygAFgJH1Zinq-11" value="No" style="text;html=1;align=center;verticalAlign=middle;resizable=0;points=[];autosize=1;strokeColor=none;fillColor=none;" vertex="1" parent="WIyWlLk6GJQsqaUBKTNV-1">
          <mxGeometry x="290" y="210" width="40" height="30" as="geometry" />
        </mxCell>
        <mxCell id="9N3kZkyaygAFgJH1Zinq-15" value="" style="edgeStyle=orthogonalEdgeStyle;rounded=0;orthogonalLoop=1;jettySize=auto;html=1;" edge="1" parent="WIyWlLk6GJQsqaUBKTNV-1" source="9N3kZkyaygAFgJH1Zinq-12" target="9N3kZkyaygAFgJH1Zinq-14">
          <mxGeometry relative="1" as="geometry" />
        </mxCell>
        <mxCell id="9N3kZkyaygAFgJH1Zinq-17" value="" style="edgeStyle=orthogonalEdgeStyle;rounded=0;orthogonalLoop=1;jettySize=auto;html=1;" edge="1" parent="WIyWlLk6GJQsqaUBKTNV-1" source="9N3kZkyaygAFgJH1Zinq-12" target="9N3kZkyaygAFgJH1Zinq-16">
          <mxGeometry relative="1" as="geometry" />
        </mxCell>
        <mxCell id="9N3kZkyaygAFgJH1Zinq-12" value="Is the letter in &lt;br&gt;the word?" style="rhombus;whiteSpace=wrap;html=1;rounded=1;glass=0;strokeWidth=1;shadow=0;" vertex="1" parent="WIyWlLk6GJQsqaUBKTNV-1">
          <mxGeometry x="380" y="410" width="100" height="110" as="geometry" />
        </mxCell>
        <mxCell id="9N3kZkyaygAFgJH1Zinq-23" value="" style="edgeStyle=orthogonalEdgeStyle;rounded=0;orthogonalLoop=1;jettySize=auto;html=1;" edge="1" parent="WIyWlLk6GJQsqaUBKTNV-1" source="9N3kZkyaygAFgJH1Zinq-14" target="9N3kZkyaygAFgJH1Zinq-22">
          <mxGeometry relative="1" as="geometry" />
        </mxCell>
        <mxCell id="9N3kZkyaygAFgJH1Zinq-14" value="Player looses a life point" style="whiteSpace=wrap;html=1;rounded=1;glass=0;strokeWidth=1;shadow=0;" vertex="1" parent="WIyWlLk6GJQsqaUBKTNV-1">
          <mxGeometry x="210" y="435" width="120" height="60" as="geometry" />
        </mxCell>
        <mxCell id="9N3kZkyaygAFgJH1Zinq-30" value="" style="edgeStyle=orthogonalEdgeStyle;rounded=0;orthogonalLoop=1;jettySize=auto;html=1;" edge="1" parent="WIyWlLk6GJQsqaUBKTNV-1" source="9N3kZkyaygAFgJH1Zinq-16" target="9N3kZkyaygAFgJH1Zinq-29">
          <mxGeometry relative="1" as="geometry" />
        </mxCell>
        <mxCell id="9N3kZkyaygAFgJH1Zinq-16" value="Show in which place is the letter located" style="whiteSpace=wrap;html=1;rounded=1;glass=0;strokeWidth=1;shadow=0;" vertex="1" parent="WIyWlLk6GJQsqaUBKTNV-1">
          <mxGeometry x="530" y="435" width="120" height="60" as="geometry" />
        </mxCell>
        <mxCell id="9N3kZkyaygAFgJH1Zinq-18" value="No" style="text;html=1;align=center;verticalAlign=middle;resizable=0;points=[];autosize=1;strokeColor=none;fillColor=none;" vertex="1" parent="WIyWlLk6GJQsqaUBKTNV-1">
          <mxGeometry x="340" y="430" width="40" height="30" as="geometry" />
        </mxCell>
        <mxCell id="9N3kZkyaygAFgJH1Zinq-19" value="Yes" style="text;html=1;align=center;verticalAlign=middle;resizable=0;points=[];autosize=1;strokeColor=none;fillColor=none;" vertex="1" parent="WIyWlLk6GJQsqaUBKTNV-1">
          <mxGeometry x="470" y="430" width="40" height="30" as="geometry" />
        </mxCell>
        <mxCell id="9N3kZkyaygAFgJH1Zinq-27" value="" style="edgeStyle=orthogonalEdgeStyle;rounded=0;orthogonalLoop=1;jettySize=auto;html=1;" edge="1" parent="WIyWlLk6GJQsqaUBKTNV-1" source="9N3kZkyaygAFgJH1Zinq-22" target="9N3kZkyaygAFgJH1Zinq-26">
          <mxGeometry relative="1" as="geometry" />
        </mxCell>
        <mxCell id="9N3kZkyaygAFgJH1Zinq-37" style="edgeStyle=orthogonalEdgeStyle;rounded=0;orthogonalLoop=1;jettySize=auto;html=1;" edge="1" parent="WIyWlLk6GJQsqaUBKTNV-1" source="9N3kZkyaygAFgJH1Zinq-22">
          <mxGeometry relative="1" as="geometry">
            <mxPoint x="430" y="150" as="targetPoint" />
            <Array as="points">
              <mxPoint x="110" y="580" />
              <mxPoint x="110" y="150" />
            </Array>
          </mxGeometry>
        </mxCell>
        <mxCell id="9N3kZkyaygAFgJH1Zinq-22" value="Still having life points?" style="rhombus;whiteSpace=wrap;html=1;rounded=1;glass=0;strokeWidth=1;shadow=0;" vertex="1" parent="WIyWlLk6GJQsqaUBKTNV-1">
          <mxGeometry x="220" y="530" width="100" height="100" as="geometry" />
        </mxCell>
        <mxCell id="9N3kZkyaygAFgJH1Zinq-26" value="Player Dies!" style="whiteSpace=wrap;html=1;rounded=1;glass=0;strokeWidth=1;shadow=0;" vertex="1" parent="WIyWlLk6GJQsqaUBKTNV-1">
          <mxGeometry x="210" y="670" width="120" height="60" as="geometry" />
        </mxCell>
        <mxCell id="9N3kZkyaygAFgJH1Zinq-28" value="No" style="text;html=1;align=center;verticalAlign=middle;resizable=0;points=[];autosize=1;strokeColor=none;fillColor=none;" vertex="1" parent="WIyWlLk6GJQsqaUBKTNV-1">
          <mxGeometry x="280" y="627.5" width="40" height="30" as="geometry" />
        </mxCell>
        <mxCell id="9N3kZkyaygAFgJH1Zinq-32" value="" style="edgeStyle=orthogonalEdgeStyle;rounded=0;orthogonalLoop=1;jettySize=auto;html=1;" edge="1" parent="WIyWlLk6GJQsqaUBKTNV-1" source="9N3kZkyaygAFgJH1Zinq-29" target="9N3kZkyaygAFgJH1Zinq-31">
          <mxGeometry relative="1" as="geometry" />
        </mxCell>
        <mxCell id="9N3kZkyaygAFgJH1Zinq-40" style="edgeStyle=orthogonalEdgeStyle;rounded=0;orthogonalLoop=1;jettySize=auto;html=1;" edge="1" parent="WIyWlLk6GJQsqaUBKTNV-1" source="9N3kZkyaygAFgJH1Zinq-29">
          <mxGeometry relative="1" as="geometry">
            <mxPoint x="430" y="150" as="targetPoint" />
            <Array as="points">
              <mxPoint x="730" y="580" />
              <mxPoint x="730" y="150" />
            </Array>
          </mxGeometry>
        </mxCell>
        <mxCell id="9N3kZkyaygAFgJH1Zinq-29" value="Is the word finished?" style="rhombus;whiteSpace=wrap;html=1;rounded=1;glass=0;strokeWidth=1;shadow=0;" vertex="1" parent="WIyWlLk6GJQsqaUBKTNV-1">
          <mxGeometry x="540" y="532.5" width="100" height="95" as="geometry" />
        </mxCell>
        <mxCell id="9N3kZkyaygAFgJH1Zinq-31" value="Player Wins!" style="whiteSpace=wrap;html=1;rounded=1;glass=0;strokeWidth=1;shadow=0;" vertex="1" parent="WIyWlLk6GJQsqaUBKTNV-1">
          <mxGeometry x="530" y="670" width="120" height="60" as="geometry" />
        </mxCell>
        <mxCell id="9N3kZkyaygAFgJH1Zinq-33" value="Yes" style="text;html=1;align=center;verticalAlign=middle;resizable=0;points=[];autosize=1;strokeColor=none;fillColor=none;" vertex="1" parent="WIyWlLk6GJQsqaUBKTNV-1">
          <mxGeometry x="600" y="627.5" width="40" height="30" as="geometry" />
        </mxCell>
        <mxCell id="9N3kZkyaygAFgJH1Zinq-38" value="Yes" style="text;html=1;align=center;verticalAlign=middle;resizable=0;points=[];autosize=1;strokeColor=none;fillColor=none;" vertex="1" parent="WIyWlLk6GJQsqaUBKTNV-1">
          <mxGeometry x="50" y="358" width="40" height="30" as="geometry" />
        </mxCell>
        <mxCell id="9N3kZkyaygAFgJH1Zinq-42" value="No" style="text;html=1;align=center;verticalAlign=middle;resizable=0;points=[];autosize=1;strokeColor=none;fillColor=none;" vertex="1" parent="WIyWlLk6GJQsqaUBKTNV-1">
          <mxGeometry x="731" y="358" width="40" height="30" as="geometry" />
        </mxCell>
      </root>
    </mxGraphModel>
  </diagram>
</mxfile>
